<svg xmlns="http://www.w3.org/2000/svg" width="47.85" height="47.85" viewBox="0 0 47.85 47.85"><defs><style>.a{fill:#f3f3f3;}</style></defs><path class="a" d="M55.85,31.925A23.925,23.925,0,1,1,31.925,8,23.925,23.925,0,0,1,55.85,31.925ZM42.184,28.516c.476-3.183-1.948-4.895-5.262-6.036L38,18.168l-2.625-.654-1.047,4.2c-.69-.172-1.4-.334-2.1-.495l1.054-4.226-2.624-.654-1.076,4.311c-.571-.13-1.132-.259-1.676-.394l0-.014-3.621-.9-.7,2.8s1.948.446,1.907.474a1.4,1.4,0,0,1,1.223,1.527l-1.225,4.913a2.177,2.177,0,0,1,.273.087l-.277-.069-1.717,6.882a.956.956,0,0,1-1.2.624c.026.038-1.908-.476-1.908-.476l-1.3,3,3.416.852c.636.159,1.258.326,1.872.483L23.555,44.8l2.622.654,1.076-4.315q1.043.283,2.092.543l-1.072,4.3,2.625.654,1.086-4.354c4.477.847,7.843.505,9.26-3.543,1.142-3.26-.057-5.14-2.412-6.366a4.186,4.186,0,0,0,3.352-3.854Zm-6,8.41c-.811,3.26-6.3,1.5-8.08,1.056L29.548,32.2C31.327,32.648,37.034,33.527,36.186,36.927ZM37,28.469c-.74,2.965-5.309,1.459-6.791,1.089l1.307-5.241C33,24.687,37.769,25.376,37,28.469Z" transform="translate(-8 -8)"/></svg>